<svg width="156" height="24" viewBox="0 0 156 24" fill="none" xmlns="http://www.w3.org/2000/svg">
<g style="mix-blend-mode:exclusion">
<path d="M2.65763 0.13652H0V23.1365H67.6124V20.6691H2.65763V0.13652Z" fill="#F3EEE7"/>
<path d="M78.9284 0.13652L70.4697 23.1365H73.1845L75.9279 15.5873H85.7868L88.5302 23.1365H91.245L82.7577 0.13652H78.9284ZM76.8137 13.1199L80.5287 2.92707H81.1574L84.8724 13.1199H76.8137Z" fill="#F3EEE7"/>
<path d="M153.285 23.1365H156L147.541 0.13652H143.712L135.253 23.1365H137.968L140.711 15.5873H150.57L153.285 23.1365ZM141.597 13.1199L145.312 2.92707H145.941L149.656 13.1199H141.597Z" fill="#F3EEE7"/>
<path d="M108.563 20.0229H107.905L97.8463 0.13652H93.5312V23.1365H96.0746V3.25019H96.7318L106.791 23.1365H111.106V0.13652H108.563V20.0229Z" fill="#F3EEE7"/>
<path d="M128.71 1.60523C127.081 0.635882 125.252 0.13652 123.194 0.13652H115.679V23.1365H123.194C125.252 23.1365 127.081 22.6372 128.71 21.6678C130.339 20.6985 131.624 19.3179 132.539 17.5848C133.453 15.8223 133.911 13.8543 133.911 11.6512C133.911 9.44814 133.453 7.4507 132.539 5.71762C131.624 3.92579 130.339 2.57458 128.71 1.60523ZM130.281 16.3511C129.567 17.7317 128.595 18.7891 127.367 19.5235C126.138 20.2872 124.738 20.6691 123.223 20.6691H118.279V2.60395H123.223C124.766 2.60395 126.138 2.98582 127.367 3.74955C128.595 4.51328 129.567 5.57075 130.281 6.92196C130.996 8.30255 131.339 9.85938 131.339 11.6218C131.367 13.4137 130.996 14.9705 130.281 16.3511Z" fill="#F3EEE7"/>
</g>
</svg>
