<svg width="30" height="16" viewBox="0 0 30 16" fill="none" xmlns="http://www.w3.org/2000/svg">
<path d="M23.2841 4.34654L22.7394 3.62939C21.0448 1.59272 18.5624 0.235689 15.7611 0.0279916C15.5117 0.00951714 15.2606 0 15.0067 0C14.7528 0 14.4933 0.00951714 14.2405 0.0285514C11.257 0.253604 8.6375 1.78139 6.94635 4.04479H6.94579L0 13.1465L3.62277 15.9093L5.54097 13.4824C5.54097 13.4824 14.2338 2.03387 14.264 1.99804C14.4413 1.78922 14.7053 1.65654 15 1.65654C15.2947 1.65654 15.5671 1.79314 15.7438 2.00756L24.4685 13.4936L26.3409 16L30 13.2322L23.2841 4.34654Z" fill="#CBBFA8"/>
</svg>
