<svg width="156" height="23" viewBox="0 0 156 23" fill="none" xmlns="http://www.w3.org/2000/svg">
<path d="M80.526 2.71438H81.1661L84.8748 12.6347H76.8173L80.526 2.71438ZM78.9288 0L70.46 22.3665H73.1772L75.9202 15.032H85.7691L88.512 22.3665H91.2293L82.7633 0H78.9288Z" fill="#F3EEE7"/>
<path d="M145.293 2.71438H145.933L149.641 12.6347H141.584L145.293 2.71438ZM143.695 0L135.227 22.3665H137.941L140.684 15.032H150.536L153.279 22.3665H155.993L147.527 0H143.693H143.695Z" fill="#F3EEE7"/>
<path d="M108.54 0V19.3293H107.903L97.8369 0H93.5225V22.3665H96.0797V3.0344H96.7197L106.783 22.3665H111.097V0H108.54Z" fill="#F3EEE7"/>
<path d="M115.687 22.3665V0H123.196C125.242 0 127.079 0.474304 128.708 1.42291C130.336 2.37152 131.611 3.69728 132.525 5.4002C133.439 7.10312 133.899 9.03176 133.899 11.1833C133.899 13.3348 133.442 15.2634 132.525 16.9663C131.608 18.6692 130.336 19.9979 128.708 20.9436C127.079 21.8922 125.242 22.3665 123.196 22.3665H115.687ZM123.196 19.9693C124.731 19.9693 126.113 19.6007 127.351 18.8664C128.585 18.1321 129.559 17.0978 130.274 15.7663C130.988 14.4348 131.345 12.9062 131.345 11.1804C131.345 9.45463 130.988 7.926 130.274 6.59452C129.559 5.26305 128.585 4.22873 127.351 3.49441C126.113 2.7601 124.731 2.39152 123.196 2.39152H118.245V19.9664H123.196V19.9693Z" fill="#F3EEE7"/>
<path d="M2.66296 0H0V16.2777C0 20.2922 2.04865 22.3665 6.36881 22.3665H67.5939V19.9693H2.66296V0Z" fill="#F3EEE7"/>
</svg>
